<svg width="1024" height="1024" viewBox="0 0 1024 1024" xmlns="http://www.w3.org/2000/svg" preserveAspectRatio="xMidYMid meet"><svg x="314" y="259" width="375" height="370" xmlns="http://www.w3.org/2000/svg" preserveAspectRatio="none"><svg version="1.1" xmlns="http://www.w3.org/2000/svg" style="display: block;" width="375" height="370" viewBox="0.17 0.00 1992.00 1960.00" preserveAspectRatio="none"><g id="svg-group-e945658a-3098-475e-8142-4f17c54d6bcb">
<path transform="translate(0,0)" fill="rgba(244, 192, 37, 1)" d="M 960.065 0 L 972.482 0 C 995.032 11.0171 1018.6 20.1374 1041.63 29.9564 L 1176.67 86.9863 C 1193.21 93.7834 1210.73 99.6985 1226.89 106.482 L 1762.75 334.887 L 1921.72 401.736 C 1947.37 412.572 1975.52 416.702 1992 440.065 L 1992 468.734 C 1988.53 473.797 1986.19 477.333 1981.96 481.675 C 1975.1 488.726 1958.41 500.863 1954.66 509.333 C 1947.37 525.817 1941.96 556.363 1940.19 574.2 C 1938.44 591.853 1939.17 612.401 1939.1 630.079 C 1939.02 650.814 1938.77 670.891 1941.84 691.253 C 1946.05 719.259 1962.85 725.115 1975.92 743.543 C 1976.96 771.922 1963.87 786.803 1939.07 797.274 C 1918.1 806.132 1895.91 811.583 1874.95 819.631 L 1631.05 914.267 L 1337.8 1030.28 L 1104.29 1124.39 C 1084.73 1132.23 1004.85 1167.56 988.547 1167.83 C 981.881 1167.94 975.438 1166.49 969.248 1164.11 C 956.338 1159.15 944.197 1151.65 931.621 1145.82 C 921.153 1140.96 910.156 1137.43 899.54 1132.95 C 889.535 1128.73 879.938 1123.57 869.964 1119.28 C 831.115 1102.55 791.362 1089.05 753.993 1068.82 C 740.47 1061.51 727.234 1052 716.461 1041 C 706.525 1030.85 699.862 1017.14 696.254 1003.51 C 692.667 989.957 692.388 975.713 691.486 961.788 C 689.365 929.037 688.747 896.594 689.372 863.761 C 689.895 836.286 699.612 731.157 683.464 712.598 C 674.332 702.101 654.882 698.285 642.457 692.694 C 626.214 685.384 610.711 676.279 594.3 669.381 C 529.412 642.11 462.535 618.43 399.175 587.654 C 377.436 592.913 360.237 599.718 339.895 608.724 C 329.979 613.114 316.372 616.593 305.807 620.416 C 284.001 628.306 262.815 638.249 241.374 646.639 C 213.91 657.385 185.914 665.864 160.1 680.78 C 156.933 682.54 149.827 685.166 147.706 687.781 C 149.361 691.127 157.47 696.302 161.237 697.762 C 213.723 718.015 264.763 742.386 316.429 764.748 C 351 779.712 425.078 797.601 409.478 848.734 C 400.775 877.259 346.902 893.193 321.527 903.91 C 268.089 926.479 212.267 944.15 159.167 967.632 C 155.381 969.289 152.071 971.535 150.678 975.465 C 151.475 978.153 151.22 978.955 154.543 980.356 C 162.329 983.638 170.435 986.654 178.264 989.857 L 225.599 1009.65 L 389.579 1077.73 C 406.376 1084.67 425.255 1094.01 442.279 1101.48 L 579.175 1161.23 C 628.131 1182.41 677.275 1202.75 726.874 1222.36 C 743.22 1228.82 762.713 1239.63 780.399 1247.09 L 845.729 1274.16 C 854.823 1277.87 864.684 1281.23 873.52 1285.33 C 907.616 1301.16 948.515 1323.11 984.393 1333.36 C 1015.98 1324.62 1038.65 1313.36 1067.95 1301.95 L 1229.76 1237.87 L 1548.5 1110.01 C 1614.36 1083.2 1680.14 1056.05 1746.1 1029.47 C 1761.93 1023.09 1778.55 1018.04 1794.49 1012.06 C 1806.52 1007.54 1819.6 1001.29 1831.56 996.184 C 1851.27 987.884 1871.06 979.784 1890.93 971.886 C 1920.95 959.879 1948.75 943.245 1971.48 973.635 C 1990.34 998.85 1975.88 1020.69 1951.3 1033.82 C 1932.23 1043.01 1911.49 1049.54 1891.69 1057.41 C 1858.54 1070.58 1825.76 1083.64 1793.29 1098.4 C 1778.16 1105.29 1765.94 1106.83 1750.67 1115.93 C 1778.71 1133.6 1806.93 1140.12 1836.16 1154.52 C 1868.99 1170.69 1902.58 1185.01 1936.08 1199.71 C 1957.95 1209.21 1977.02 1215.28 1992 1235.88 L 1992 1259.83 C 1984.24 1272.46 1956.61 1299.97 1953.92 1307.62 C 1934.87 1361.8 1936.13 1430.65 1943.97 1487.22 C 1947.44 1512.41 1991.87 1532.23 1975.69 1560.26 C 1961.4 1585 1935.1 1590.54 1910.47 1599.49 C 1893.24 1605.94 1876.06 1612.52 1858.93 1619.25 L 1667.61 1695.49 C 1477.4 1769.45 1287.88 1845.17 1099.08 1922.66 C 1077.94 1931.55 1054.89 1938.79 1033.59 1947.92 C 1024.94 1951.62 1013.6 1955.26 1005.68 1960 L 970.14 1960 C 938.395 1940.8 906.762 1931.88 873.185 1917.23 C 867.663 1914.82 861.959 1912.59 856.383 1910.28 L 688.183 1838.98 L 230.438 1643.03 L 106.379 1589.48 C 89.2372 1582.18 69.459 1574.6 51.2288 1567.24 C 20.0412 1554.64 2.78022 1529.78 15.3676 1496.45 C 22.6808 1477.08 75.6262 1461.65 94.842 1454.95 L 187.89 1422.65 C 207.558 1415.64 226.959 1408.04 246.95 1401.35 C 257.726 1397.74 266.771 1391.43 279.341 1388.08 C 263.127 1379.91 252.617 1376.56 236.391 1369.5 C 197.732 1352.94 158.948 1336.67 120.044 1320.69 C 102.68 1313.58 84.9731 1307.11 67.7983 1299.58 C 55.8116 1294.32 34.3976 1285.62 29.6908 1272.23 C 22.6257 1252.14 33.6619 1238.66 41.2541 1221.44 C 54.3333 1191.77 49.2954 1050.8 36.5739 1021.92 C 29.9733 1006.93 9.80623 997.376 0.345044 973.042 C 2.98042 960.809 12.5495 942.069 23.8239 936.569 C 61.4043 918.233 104.796 904.654 144.042 889.613 C 189.807 872.072 233.595 852.584 278.694 835.076 C 254.592 821.727 230.826 812.003 205.327 801.672 C 173.881 788.931 144.271 772.439 112.332 761.02 C 87.8505 752.01 64.5477 742.927 40.6681 732.222 C 15.1544 720.784 2.15853 689.085 12.7672 663.173 C 15.1799 657.279 20.7561 648.461 26.3499 645.32 C 42.943 636 62.1459 630.076 79.926 623.909 L 145.461 600.601 C 174.216 590.106 202.856 579.297 231.374 568.174 C 248.06 561.486 265.571 553.566 281.925 547.191 C 255.471 529.547 226.353 520.027 197.228 507.612 C 177.557 499.226 158.544 491.476 139.334 481.88 C 129.623 477.008 115.199 473.85 105.997 468.932 C 78.0326 453.99 28.6135 441.982 9.40197 417.087 C 4.50308 384.107 9.43282 374.709 39.4075 360.781 C 66.0932 348.382 93.8413 342.099 120.898 331.106 C 142.605 322.287 164.118 312.838 186.538 305.823 C 193.02 303.773 200.036 302.252 206.322 299.743 L 619.26 135.824 C 634.819 129.683 650.106 122.016 665.884 115.901 L 874.694 33.5761 C 902.805 22.3109 932.972 12.6784 960.065 0 z M 908.194 1045.67 C 908.524 1017.03 907.41 991.265 904.611 962.851 C 903.168 948.205 909.176 927.104 908.527 911.777 C 909.235 887.103 921.811 843.211 942.943 828.181 C 946.743 824.821 948.799 822.646 952.17 818.95 C 967.648 796.101 1038.83 775.47 1066.78 764.543 L 1250.52 691.869 C 1433.23 617.328 1616.39 543.896 1799.98 471.576 C 1809.75 467.711 1818.96 464.961 1816.24 453.108 C 1815.45 449.652 1813.04 447.007 1809.96 445.592 C 1757.96 421.751 1705.84 398.004 1650.76 382.022 C 1644.66 380.252 1634.44 370.853 1627.82 368.409 C 1578.72 350.797 1532 327.37 1484.18 306.759 L 1230.5 200.273 C 1208.78 191.216 1186.71 183.242 1164.8 173.889 C 1128.17 157.81 1081.87 137.953 1045.8 123.484 C 1030.4 117.302 969.515 89.3761 962.274 91.6852 C 887.707 115.464 724.276 183.229 659.438 209.172 L 261.571 368.958 C 248.557 374.305 194.301 392.914 187.901 399.833 C 188.293 403.506 188.213 406.023 190.073 409.199 C 198.151 413.882 220.981 422.241 230.856 426.359 L 318.596 463.508 L 630.035 595.896 C 646.976 603.241 664.032 610.318 681.196 617.123 C 783.935 658.138 772.402 664.714 772.361 769.717 L 772.285 911.753 C 772.303 921.993 771.109 956.443 773.838 964.308 C 790.74 1013.01 852.653 1021.35 893.434 1040.53 C 897.806 1042.59 903.612 1044.55 908.194 1045.67 z M 132.256 1072.31 L 132.23 1177.14 C 132.189 1195.51 131.649 1217.05 132.554 1235.15 C 154.74 1250.85 198.702 1265.8 224.698 1276.23 C 279.249 1298.1 334.445 1322.34 388.28 1345.72 C 413.104 1356.5 425.615 1384.46 410.646 1408.41 C 402.082 1422.12 390.14 1431.87 373.918 1436.48 L 371.971 1437.35 C 362.969 1445.04 347.27 1449.22 336.347 1453.63 C 326.929 1457.43 317.835 1462.27 308.346 1465.79 C 286.902 1473.75 179.969 1510.65 168.908 1520.37 L 169.008 1521.87 C 177.296 1532.05 271.905 1569.57 292.396 1578.52 L 722.616 1761.76 C 775.728 1784.12 828.237 1809.3 882.033 1830.33 C 891.708 1834.12 898.076 1836.32 908.305 1837.72 C 909.181 1797.66 906.946 1755.8 908.656 1715.56 C 909.214 1702.42 915.853 1684.37 915.905 1670.66 C 915.919 1666.94 912.491 1657.56 911.174 1653.65 C 899.927 1643.49 875.403 1636.23 860.472 1629.83 L 738.962 1577.6 L 684.395 1554.89 C 651.748 1541.48 603.295 1527.96 597.524 1488.51 C 594.498 1467.83 615.542 1447.74 634.677 1444.49 C 642.817 1443.11 667.335 1452.87 676.316 1455.39 C 713.555 1471.03 752.587 1487.19 789.487 1503.05 L 921.16 1558.31 C 938.285 1565.64 974.259 1585.55 990.976 1584.48 C 1016.47 1582.84 1126.55 1533.11 1157.63 1520.42 L 1368.84 1434.84 L 1680.82 1310.96 C 1696.2 1304.84 1823.82 1256.64 1827.85 1251.81 L 1827.23 1248.91 C 1814.01 1234.96 1720.16 1202.28 1696.86 1191.7 C 1678.75 1183.48 1657.48 1173.02 1639.18 1163.45 C 1620.69 1169.45 1604.52 1178.41 1586.06 1185.77 L 1446.85 1240.88 C 1397.42 1259.91 1344.89 1277.74 1296.44 1299.06 C 1277.31 1307.48 1188.33 1339.43 1181.78 1349.86 C 1155.31 1355.55 1147.18 1358.14 1122.43 1370.87 C 1095.12 1384.9 1060.41 1391.86 1032.16 1404.37 C 1027 1406.65 1024.66 1409.65 1021.57 1414.12 L 990.816 1423.71 C 984.215 1431.92 981.792 1433.81 972.002 1428.33 C 963.051 1423.02 952.886 1417.56 944.726 1411.11 C 933.981 1402.61 925.368 1399.1 912.876 1394.02 C 878.006 1379.86 843.37 1364.75 808.791 1349.87 C 783.562 1339.01 759.049 1327.81 732.76 1319.65 C 725.695 1317.43 715.823 1309.59 708.133 1306.64 C 696.535 1302.21 684.457 1299.54 672.832 1295.24 C 610.259 1264.22 545.664 1237.98 481.912 1209.6 C 469.419 1204.04 453.263 1202.41 440.515 1197.15 C 434.174 1194.53 427.971 1188.52 421.757 1185.33 C 385.589 1168.79 348.673 1153.77 312.24 1137.83 C 303.961 1133.29 283.61 1130.14 276.606 1125.44 C 248.847 1106.81 215.98 1096.5 185.351 1083.02 C 174.452 1078.22 160.345 1071.54 149.138 1068.09 C 142.446 1070.47 139.361 1071.86 132.256 1072.31 z M 994.291 1079.03 C 1011.22 1075.42 1026.22 1069.65 1042.3 1063.41 C 1082.82 1047.7 1122.61 1030.3 1163.03 1014.33 L 1263.82 973.933 C 1270.61 971.145 1296.59 961.137 1300.96 958.601 C 1308.81 952.107 1362.76 932.447 1376.64 927.147 C 1485.31 885.652 1592.81 839.925 1701.29 798.149 L 1802.35 759.291 C 1814.55 754.635 1845.71 743.988 1855.41 737.486 C 1856.91 733.016 1859.99 725.783 1860.17 721.46 C 1860.75 707.722 1856.35 694.966 1856.29 681.073 C 1856.1 636.398 1856.38 591.699 1856.18 547.024 C 1828.94 550.257 1762.89 580.444 1733.71 592.755 C 1730.38 598.31 1730.49 597.873 1724.38 599.486 C 1700.21 605.866 1676.59 615.036 1653.06 623.498 C 1641.78 627.556 1631.13 634.956 1619.67 639.475 C 1597.89 648.063 1575.72 655.047 1554.44 664.903 C 1546.61 668.027 1537.72 669.698 1530.01 673.026 C 1503.05 684.678 1475.44 695.644 1447.89 705.807 C 1436.01 710.191 1405.99 725.152 1395.11 725.478 C 1309.78 756.897 1221.19 793.939 1136.25 827.628 L 1061.24 856.745 C 1047.83 861.948 1033.45 866.293 1020.94 873.49 C 1010.31 879.606 1000.52 889.368 995.383 900.573 C 982.183 929.385 987.013 1048.82 994.291 1079.03 z M 1842.58 1339.17 C 1831.06 1341.67 1826.63 1345.17 1816.71 1348.75 C 1793.54 1357.53 1769.5 1368.68 1746.85 1378.76 C 1730.07 1386.22 1705.1 1392.79 1693.41 1406.87 C 1680.69 1408.41 1666 1410.39 1653.97 1414.68 C 1641.89 1418.99 1630.57 1425.4 1618.38 1430.41 L 1526.85 1467.16 C 1520.97 1469.5 1514.83 1471.52 1508.96 1473.9 C 1498.19 1478.27 1495.99 1476.23 1490.05 1486.47 C 1477.52 1488.89 1466.11 1490.97 1453.86 1494.82 C 1445.77 1496.64 1435.63 1503.97 1428.12 1506.01 C 1407.09 1511.73 1388.22 1523.22 1368.17 1530.37 C 1331 1543.64 1295 1558.61 1258.65 1573.99 C 1242.44 1580.85 1226.75 1584.71 1212.11 1595.26 C 1204.99 1600.12 1202.03 1592.14 1194.02 1606.42 C 1165.08 1611.96 1146.61 1618.35 1120.02 1631.19 C 1105.05 1638.42 1086.58 1643.46 1071.1 1649.52 C 1050.8 1658.32 1033.5 1666.5 1012.06 1673.6 C 1011.15 1674.26 1009.41 1675.36 1008.81 1676.14 C 988.156 1704.05 993.626 1739.27 992.184 1771.56 C 990.644 1806.04 993.752 1835.12 997.141 1868.99 C 1025.56 1865.34 1084.57 1837.91 1112.25 1826.52 C 1138.98 1815.52 1166.95 1804.42 1193.94 1793.63 L 1651.73 1611.33 C 1694.3 1594.33 1737.6 1578.27 1780.12 1560.97 C 1803.28 1551.55 1834.01 1542.67 1855.92 1531.46 C 1856.47 1521.39 1859.76 1513.13 1860.05 1503.17 C 1860.51 1488.01 1856.23 1471.17 1856.23 1456.26 C 1856.22 1430.54 1855.84 1403.89 1856.73 1378.24 C 1857.08 1368.35 1859.57 1356.14 1860.25 1345.51 C 1851.96 1344.22 1850.06 1342.25 1842.58 1339.17 z"/>
<path transform="translate(0,0)" fill="rgba(244, 192, 37, 1)" d="M 127.93 1237.68 C 129.752 1198.45 130.488 1160.12 129.864 1120.86 C 129.535 1100.18 130.175 1073.4 128.352 1052.99 C 145.101 1065.72 217.625 1094.15 241.11 1104.26 L 489.556 1210.8 C 632.535 1273.16 775.948 1334.52 919.784 1394.87 C 940.533 1403.51 958.723 1414.94 979.303 1423.46 C 1005.28 1414.24 1023.26 1405.92 1048.27 1395.96 L 1145.28 1357.71 L 1469.94 1227.86 C 1510.5 1211.43 1551.19 1195.33 1592.01 1179.55 C 1607.45 1173.65 1626.23 1164.47 1642.33 1162.13 C 1654.06 1168.46 1669.4 1177.58 1681.45 1182.34 C 1727.3 1200.46 1772.89 1217.85 1817.27 1239.54 C 1826.66 1244.13 1838.04 1247.36 1847.84 1251.44 C 1820.83 1255.27 1790.82 1270.07 1765.17 1280.36 C 1600.55 1346.44 1433.87 1409.68 1269.98 1477.37 L 1111.7 1541.74 C 1087.43 1551.98 1063.02 1561.88 1038.48 1571.45 C 1022.77 1577.61 1006.72 1584.24 990.393 1588.52 C 986.243 1589.6 980.223 1587.22 976.212 1585.56 C 954.366 1576.49 933.461 1566.12 911.604 1556.79 L 763.31 1494.09 C 739.451 1483.81 715.444 1473.59 691.361 1463.99 C 663.074 1452.72 624.462 1431.97 604.987 1468.23 C 576.452 1521.36 675.122 1548.87 710.208 1563.56 C 759.911 1583.84 809.34 1604.78 858.482 1626.38 C 877.484 1634.64 906.411 1644.94 922.452 1656.76 C 919.715 1668.78 913.331 1697.86 912.144 1709.54 C 909.678 1733.81 907.266 1828.94 913.763 1846.73 C 900.19 1839.29 882.977 1833.01 868.503 1826.81 C 839.484 1814.38 809.97 1802.62 781.004 1790.08 L 440.173 1645.3 L 248.003 1562.11 C 228.644 1553.73 170.651 1526.65 152.201 1523.72 C 190.407 1506.45 227.26 1493.62 266.428 1478.97 C 301.29 1465.92 336.943 1449.67 371.971 1437.35 C 362.969 1445.04 347.27 1449.22 336.347 1453.63 C 326.929 1457.43 317.835 1462.27 308.346 1465.79 C 286.902 1473.75 179.969 1510.65 168.908 1520.37 L 169.008 1521.87 C 177.296 1532.05 271.905 1569.57 292.396 1578.52 L 722.616 1761.76 C 775.728 1784.12 828.237 1809.3 882.033 1830.33 C 891.708 1834.12 898.076 1836.32 908.305 1837.72 C 909.181 1797.66 906.946 1755.8 908.656 1715.56 C 909.214 1702.42 915.853 1684.37 915.905 1670.66 C 915.919 1666.94 912.491 1657.56 911.174 1653.65 C 899.927 1643.49 875.403 1636.23 860.472 1629.83 L 738.962 1577.6 L 684.395 1554.89 C 651.748 1541.48 603.295 1527.96 597.524 1488.51 C 594.498 1467.83 615.542 1447.74 634.677 1444.49 C 642.817 1443.11 667.335 1452.87 676.316 1455.39 C 713.555 1471.03 752.587 1487.19 789.487 1503.05 L 921.16 1558.31 C 938.285 1565.64 974.259 1585.55 990.976 1584.48 C 1016.47 1582.84 1126.55 1533.11 1157.63 1520.42 L 1368.84 1434.84 L 1680.82 1310.96 C 1696.2 1304.84 1823.82 1256.64 1827.85 1251.81 L 1827.23 1248.91 C 1814.01 1234.96 1720.16 1202.28 1696.86 1191.7 C 1678.75 1183.48 1657.48 1173.02 1639.18 1163.45 C 1620.69 1169.45 1604.52 1178.41 1586.06 1185.77 L 1446.85 1240.88 C 1397.42 1259.91 1344.89 1277.74 1296.44 1299.06 C 1277.31 1307.48 1188.33 1339.43 1181.78 1349.86 C 1155.31 1355.55 1147.18 1358.14 1122.43 1370.87 C 1095.12 1384.9 1060.41 1391.86 1032.16 1404.37 C 1027 1406.65 1024.66 1409.65 1021.57 1414.12 L 990.816 1423.71 C 984.215 1431.92 981.792 1433.81 972.002 1428.33 C 963.051 1423.02 952.886 1417.56 944.726 1411.11 C 933.981 1402.61 925.368 1399.1 912.876 1394.02 C 878.006 1379.86 843.37 1364.75 808.791 1349.87 C 783.562 1339.01 759.049 1327.81 732.76 1319.65 C 725.695 1317.43 715.823 1309.59 708.133 1306.64 C 696.535 1302.21 684.457 1299.54 672.832 1295.24 C 610.259 1264.22 545.664 1237.98 481.912 1209.6 C 469.419 1204.04 453.263 1202.41 440.515 1197.15 C 434.174 1194.53 427.971 1188.52 421.757 1185.33 C 385.589 1168.79 348.673 1153.77 312.24 1137.83 C 303.961 1133.29 283.61 1130.14 276.606 1125.44 C 248.847 1106.81 215.98 1096.5 185.351 1083.02 C 174.452 1078.22 160.345 1071.54 149.138 1068.09 C 142.446 1070.47 139.361 1071.86 132.256 1072.31 L 132.23 1177.14 C 132.189 1195.51 131.649 1217.05 132.554 1235.15 C 154.74 1250.85 198.702 1265.8 224.698 1276.23 C 279.249 1298.1 334.445 1322.34 388.28 1345.72 C 413.104 1356.5 425.615 1384.46 410.646 1408.41 C 402.082 1422.12 390.14 1431.87 373.918 1436.48 C 389.444 1426.26 408.446 1416.39 413.178 1396.24 C 423.92 1350.5 361.4 1337.44 329.521 1322.63 C 285.505 1302.17 238.138 1284.36 192.72 1266.02 C 179.585 1260.68 166.578 1255.03 153.71 1249.07 C 146.931 1245.96 134.454 1239.75 127.93 1237.68 z"/>
<path transform="translate(0,0)" fill="rgba(244, 192, 37, 1)" d="M 166.673 403.699 C 175.722 401.208 192.955 393.161 203.043 389.245 C 238.394 375.665 273.519 361.502 308.403 346.763 C 427.097 298.617 546.083 251.195 665.355 204.5 C 725.204 180.159 785.22 156.233 845.4 132.724 C 870.799 122.654 944.71 90.4988 966.872 88.8346 C 970.541 88.5591 973.487 90.0023 976.811 91.3331 C 991.724 97.3022 1005.86 105.108 1020.68 111.332 L 1162.93 170.652 L 1841.1 454.776 L 1841.71 456.39 L 1840.29 458.21 C 1831.26 460.373 1816.83 466.975 1807.83 470.657 L 1747.44 495.066 C 1669.37 525.065 1591.67 555.997 1514.34 587.858 L 1148.85 734.235 C 1095.85 755.277 1042.46 775.818 989.196 796.206 C 975.38 801.494 964.039 810.202 952.17 818.95 C 967.648 796.101 1038.83 775.47 1066.78 764.543 L 1250.52 691.869 C 1433.23 617.328 1616.39 543.896 1799.98 471.576 C 1809.75 467.711 1818.96 464.961 1816.24 453.108 C 1815.45 449.652 1813.04 447.007 1809.96 445.592 C 1757.96 421.751 1705.84 398.004 1650.76 382.022 C 1644.66 380.252 1634.44 370.853 1627.82 368.409 C 1578.72 350.797 1532 327.37 1484.18 306.759 L 1230.5 200.273 C 1208.78 191.216 1186.71 183.242 1164.8 173.889 C 1128.17 157.81 1081.87 137.953 1045.8 123.484 C 1030.4 117.302 969.515 89.3761 962.274 91.6852 C 887.707 115.464 724.276 183.229 659.438 209.172 L 261.571 368.958 C 248.557 374.305 194.301 392.914 187.901 399.833 C 188.293 403.506 188.213 406.023 190.073 409.199 C 198.151 413.882 220.981 422.241 230.856 426.359 L 318.596 463.508 L 630.035 595.896 C 646.976 603.241 664.032 610.318 681.196 617.123 C 783.935 658.138 772.402 664.714 772.361 769.717 L 772.285 911.753 C 772.303 921.993 771.109 956.443 773.838 964.308 C 790.74 1013.01 852.653 1021.35 893.434 1040.53 C 897.806 1042.59 903.612 1044.55 908.194 1045.67 C 908.524 1017.03 907.41 991.265 904.611 962.851 C 903.168 948.205 909.176 927.104 908.527 911.777 C 909.235 887.103 921.811 843.211 942.943 828.181 C 926.663 849.76 917.242 865.566 913.06 893.037 C 907.332 931.987 908.476 972.026 909.882 1011.28 C 910.442 1026.92 908.408 1042.24 917.609 1055.36 C 876.152 1029.66 818.981 1022.71 781.787 989.663 C 765.79 975.451 769.78 931.409 769.77 911.1 L 769.911 771.042 C 769.93 745.035 770.59 718.375 768.685 692.436 C 767.762 681.005 762.56 665.019 753.673 657.383 C 727.237 634.668 687.444 622.121 655.404 608.698 L 510.521 548.032 L 310.191 462.604 C 260.61 441.418 217.759 422.269 166.673 403.699 z"/>
<path transform="translate(0,0)" fill="rgba(244, 192, 37, 1)" d="M 1395.11 725.478 C 1400.63 721.998 1432.05 710.066 1440.38 706.767 L 1521.38 674.191 C 1601.21 642.55 1680.78 609.806 1760.49 577.828 C 1777.27 571.095 1850.12 545.132 1860.67 537.389 L 1861.92 537.598 C 1862.29 541 1861.71 540.554 1861.33 543.223 C 1859.88 553.453 1859.17 565.708 1859.2 576.076 C 1859.33 622.147 1852.66 689.036 1867.55 732.177 C 1848.4 745.647 1807.11 759.4 1783.81 768.581 L 1618.86 832.977 C 1543.6 863.424 1468.13 893.359 1392.47 922.781 L 1334.33 945.928 C 1325.98 949.271 1309.2 956.324 1300.96 958.601 C 1308.81 952.107 1362.76 932.447 1376.64 927.147 C 1485.31 885.652 1592.81 839.925 1701.29 798.149 L 1802.35 759.291 C 1814.55 754.635 1845.71 743.988 1855.41 737.486 C 1856.91 733.016 1859.99 725.783 1860.17 721.46 C 1860.75 707.722 1856.35 694.966 1856.29 681.073 C 1856.1 636.398 1856.38 591.699 1856.18 547.024 C 1828.94 550.257 1762.89 580.444 1733.71 592.755 C 1730.38 598.31 1730.49 597.873 1724.38 599.486 C 1700.21 605.866 1676.59 615.036 1653.06 623.498 C 1641.78 627.556 1631.13 634.956 1619.67 639.475 C 1597.89 648.063 1575.72 655.047 1554.44 664.903 C 1546.61 668.027 1537.72 669.698 1530.01 673.026 C 1503.05 684.678 1475.44 695.644 1447.89 705.807 C 1436.01 710.191 1405.99 725.152 1395.11 725.478 z"/>
<path transform="translate(0,0)" fill="rgba(244, 192, 37, 1)" d="M 1860.25 1345.51 L 1862.42 1346.09 C 1859.05 1386.73 1854.61 1485.74 1867.86 1524.89 C 1846.6 1540.88 1812.83 1550.81 1787.56 1560.53 L 1677.01 1603.59 L 1351.23 1733.06 L 1136.08 1818.96 C 1097.98 1834.45 1033.18 1864.52 995.477 1872.09 C 989.56 1833.16 981.104 1710.77 1002.82 1681.93 C 1004.51 1679.69 1006.44 1677.67 1008.81 1676.14 C 988.156 1704.05 993.626 1739.27 992.184 1771.56 C 990.644 1806.04 993.752 1835.12 997.141 1868.99 C 1025.56 1865.34 1084.57 1837.91 1112.25 1826.52 C 1138.98 1815.52 1166.95 1804.42 1193.94 1793.63 L 1651.73 1611.33 C 1694.3 1594.33 1737.6 1578.27 1780.12 1560.97 C 1803.28 1551.55 1834.01 1542.67 1855.92 1531.46 C 1856.47 1521.39 1859.76 1513.13 1860.05 1503.17 C 1860.51 1488.01 1856.23 1471.17 1856.23 1456.26 C 1856.22 1430.54 1855.84 1403.89 1856.73 1378.24 C 1857.08 1368.35 1859.57 1356.14 1860.25 1345.51 z"/>
<path transform="translate(0,0)" fill="rgba(244, 192, 37, 1)" d="M 1814.54 1347.61 L 1816.71 1348.75 C 1793.54 1357.53 1769.5 1368.68 1746.85 1378.76 C 1730.07 1386.22 1705.1 1392.79 1693.41 1406.87 C 1680.69 1408.41 1666 1410.39 1653.97 1414.68 C 1641.89 1418.99 1630.57 1425.4 1618.38 1430.41 L 1526.85 1467.16 C 1520.97 1469.5 1514.83 1471.52 1508.96 1473.9 C 1498.19 1478.27 1495.99 1476.23 1490.05 1486.47 C 1477.52 1488.89 1466.11 1490.97 1453.86 1494.82 C 1445.77 1496.64 1435.63 1503.97 1428.12 1506.01 C 1407.09 1511.73 1388.22 1523.22 1368.17 1530.37 C 1331 1543.64 1295 1558.61 1258.65 1573.99 C 1242.44 1580.85 1226.75 1584.71 1212.11 1595.26 C 1204.99 1600.12 1202.03 1592.14 1194.02 1606.42 C 1165.08 1611.96 1146.61 1618.35 1120.02 1631.19 C 1105.05 1638.42 1086.58 1643.46 1071.1 1649.52 C 1050.8 1658.32 1033.5 1666.5 1012.06 1673.6 C 1021.67 1665.06 1085.47 1641.82 1102.86 1634.94 L 1187.74 1600.85 L 1457.58 1491.05 C 1576.89 1444.03 1695.87 1396.22 1814.54 1347.61 z"/>
<path transform="translate(0,0)" fill="rgba(244, 192, 37, 1)" d="M 1814.54 1347.61 C 1828.17 1340.77 1852.73 1333.47 1864.97 1325.37 C 1863.82 1332.35 1863.82 1338.77 1862.42 1346.09 L 1860.25 1345.51 C 1851.96 1344.22 1850.06 1342.25 1842.58 1339.17 C 1831.06 1341.67 1826.63 1345.17 1816.71 1348.75 L 1814.54 1347.61 z"/>
<path transform="translate(0,0)" fill="rgba(244, 192, 37, 1)" fill-opacity="0.00784314" d="M 1975.92 743.543 C 1962.85 725.115 1946.05 719.259 1941.84 691.253 C 1938.77 670.891 1939.02 650.814 1939.1 630.079 C 1939.17 612.401 1938.44 591.853 1940.19 574.2 C 1941.96 556.363 1947.37 525.817 1954.66 509.333 C 1958.41 500.863 1975.1 488.726 1981.96 481.675 C 1986.19 477.333 1988.53 473.797 1992 468.734 L 1992 1235.88 C 1977.02 1215.28 1957.95 1209.21 1936.08 1199.71 C 1902.58 1185.01 1868.99 1170.69 1836.16 1154.52 C 1806.93 1140.12 1778.71 1133.6 1750.67 1115.93 C 1765.94 1106.83 1778.16 1105.29 1793.29 1098.4 C 1825.76 1083.64 1858.54 1070.58 1891.69 1057.41 C 1911.49 1049.54 1932.23 1043.01 1951.3 1033.82 C 1975.88 1020.69 1990.34 998.85 1971.48 973.635 C 1948.75 943.245 1920.95 959.879 1890.93 971.886 C 1871.06 979.784 1851.27 987.884 1831.56 996.184 C 1819.6 1001.29 1806.52 1007.54 1794.49 1012.06 C 1778.55 1018.04 1761.93 1023.09 1746.1 1029.47 C 1680.14 1056.05 1614.36 1083.2 1548.5 1110.01 L 1229.76 1237.87 L 1067.95 1301.95 C 1038.65 1313.36 1015.98 1324.62 984.393 1333.36 C 948.515 1323.11 907.616 1301.16 873.52 1285.33 C 864.684 1281.23 854.823 1277.87 845.729 1274.16 L 780.399 1247.09 C 762.713 1239.63 743.22 1228.82 726.874 1222.36 C 677.275 1202.75 628.131 1182.41 579.175 1161.23 L 442.279 1101.48 C 425.255 1094.01 406.376 1084.67 389.579 1077.73 L 225.599 1009.65 L 178.264 989.857 C 170.435 986.654 162.329 983.638 154.543 980.356 C 151.22 978.955 151.475 978.153 150.678 975.465 C 152.071 971.535 155.381 969.289 159.167 967.632 C 212.267 944.15 268.089 926.479 321.527 903.91 C 346.902 893.193 400.775 877.259 409.478 848.734 C 425.078 797.601 351 779.712 316.429 764.748 C 264.763 742.386 213.723 718.015 161.237 697.762 C 157.47 696.302 149.361 691.127 147.706 687.781 C 149.827 685.166 156.933 682.54 160.1 680.78 C 185.914 665.864 213.91 657.385 241.374 646.639 C 262.815 638.249 284.001 628.306 305.807 620.416 C 316.372 616.593 329.979 613.114 339.895 608.724 C 360.237 599.718 377.436 592.913 399.175 587.654 C 462.535 618.43 529.412 642.11 594.3 669.381 C 610.711 676.279 626.214 685.384 642.457 692.694 C 654.882 698.285 674.332 702.101 683.464 712.598 C 699.612 731.157 689.895 836.286 689.372 863.761 C 688.747 896.594 689.365 929.037 691.486 961.788 C 692.388 975.713 692.667 989.957 696.254 1003.51 C 699.862 1017.14 706.525 1030.85 716.461 1041 C 727.234 1052 740.47 1061.51 753.993 1068.82 C 791.362 1089.05 831.115 1102.55 869.964 1119.28 C 879.938 1123.57 889.535 1128.73 899.54 1132.95 C 910.156 1137.43 921.153 1140.96 931.621 1145.82 C 944.197 1151.65 956.338 1159.15 969.248 1164.11 C 975.438 1166.49 981.881 1167.94 988.547 1167.83 C 1004.85 1167.56 1084.73 1132.23 1104.29 1124.39 L 1337.8 1030.28 L 1631.05 914.267 L 1874.95 819.631 C 1895.91 811.583 1918.1 806.132 1939.07 797.274 C 1963.87 786.803 1976.96 771.922 1975.92 743.543 z"/>
</g></svg></svg></svg>